<svg width="19" height="20" viewBox="0 0 19 20" fill="none" xmlns="http://www.w3.org/2000/svg">
<path d="M1.59998 15H6.59998H12.6H17.6L16.195 13.5951C15.814 13.2141 15.6 12.6973 15.6 12.1585V9C15.6 6.38757 13.9304 4.16509 11.6 3.34142V3C11.6 1.89543 10.7045 1 9.59998 1C8.49541 1 7.59998 1.89543 7.59998 3V3.34142C5.26959 4.16509 3.59998 6.38757 3.59998 9V12.1585C3.59998 12.6973 3.38592 13.2141 3.00491 13.5951L1.59998 15Z" fill="#116F47"/>
<path d="M17.6 15V16C18.0044 16 18.3691 15.7564 18.5239 15.3827C18.6786 15.009 18.5931 14.5789 18.3071 14.2929L17.6 15ZM1.59998 15L0.892869 14.2929C0.606871 14.5789 0.521315 15.009 0.676096 15.3827C0.830877 15.7564 1.19551 16 1.59998 16L1.59998 15ZM3.00491 13.5951L3.71201 14.3022H3.71201L3.00491 13.5951ZM7.59998 3.34142L7.93322 4.28426C8.33281 4.14302 8.59998 3.76523 8.59998 3.34142H7.59998ZM11.6 3.34142H10.6C10.6 3.76523 10.8671 4.14302 11.2667 4.28426L11.6 3.34142ZM2.30708 15.7071L3.71201 14.3022L2.2978 12.888L0.892869 14.2929L2.30708 15.7071ZM4.59998 12.1585V9H2.59998V12.1585H4.59998ZM14.6 9V12.1585H16.6V9H14.6ZM15.4879 14.3022L16.8929 15.7071L18.3071 14.2929L16.9022 12.888L15.4879 14.3022ZM3.71201 14.3022C4.28057 13.7336 4.59998 12.9625 4.59998 12.1585H2.59998C2.59998 12.4321 2.49128 12.6945 2.2978 12.888L3.71201 14.3022ZM14.6 12.1585C14.6 12.9625 14.9194 13.7336 15.4879 14.3022L16.9022 12.888C16.7087 12.6945 16.6 12.4321 16.6 12.1585H14.6ZM7.26673 2.39858C4.5493 3.35905 2.59998 5.9506 2.59998 9H4.59998C4.59998 6.82453 5.98989 4.97113 7.93322 4.28426L7.26673 2.39858ZM11.2667 4.28426C13.2101 4.97113 14.6 6.82453 14.6 9H16.6C16.6 5.9506 14.6507 3.35905 11.9332 2.39858L11.2667 4.28426ZM12.6 3.34142V3H10.6V3.34142H12.6ZM6.59998 3V3.34142H8.59998V3H6.59998ZM9.59998 0C7.94312 0 6.59998 1.34315 6.59998 3H8.59998C8.59998 2.44772 9.04769 2 9.59998 2V0ZM12.6 3C12.6 1.34315 11.2568 0 9.59998 0V2C10.1523 2 10.6 2.44772 10.6 3H12.6ZM11.6 16C11.6 17.1046 10.7045 18 9.59998 18V20C11.8091 20 13.6 18.2091 13.6 16H11.6ZM9.59998 18C8.49541 18 7.59998 17.1046 7.59998 16H5.59998C5.59998 18.2091 7.39084 20 9.59998 20V18ZM17.6 14H12.6V16H17.6V14ZM13.6 16V15H11.6V16H13.6ZM12.6 14H6.59998V16H12.6V14ZM6.59998 14H1.59998V16H6.59998V14ZM7.59998 16V15H5.59998V16H7.59998Z" fill="#116F47"/>
</svg>
