<svg width="18" height="18" viewBox="0 0 18 18" fill="none" xmlns="http://www.w3.org/2000/svg">
<path d="M0.292893 12.2929C-0.0976311 12.6834 -0.0976311 13.3166 0.292893 13.7071C0.683417 14.0976 1.31658 14.0976 1.70711 13.7071L0.292893 12.2929ZM5.58579 8.41421L6.29289 9.12132H6.29289L5.58579 8.41421ZM8.41421 8.41421L9.12132 7.70711V7.70711L8.41421 8.41421ZM12.2929 13.7071C12.6834 14.0976 13.3166 14.0976 13.7071 13.7071C14.0976 13.3166 14.0976 12.6834 13.7071 12.2929L12.2929 13.7071ZM10.2929 10.2929C9.90237 10.6834 9.90237 11.3166 10.2929 11.7071C10.6834 12.0976 11.3166 12.0976 11.7071 11.7071L10.2929 10.2929ZM15.4142 9.41421L14.7071 10.1213L15.4142 9.41421ZM16.2929 11.7071C16.6834 12.0976 17.3166 12.0976 17.7071 11.7071C18.0976 11.3166 18.0976 10.6834 17.7071 10.2929L16.2929 11.7071ZM11 4C10.4477 4 10 4.44772 10 5C10 5.55228 10.4477 6 11 6V4ZM11.01 6C11.5623 6 12.01 5.55228 12.01 5C12.01 4.44772 11.5623 4 11.01 4V6ZM3 2H15V0H3V2ZM16 3V15H18V3H16ZM15 16H3V18H15V16ZM2 15V3H0V15H2ZM3 16C2.44772 16 2 15.5523 2 15H0C0 16.6569 1.34315 18 3 18V16ZM16 15C16 15.5523 15.5523 16 15 16V18C16.6569 18 18 16.6569 18 15H16ZM15 2C15.5523 2 16 2.44772 16 3H18C18 1.34315 16.6569 0 15 0V2ZM3 0C1.34315 0 0 1.34315 0 3H2C2 2.44772 2.44772 2 3 2V0ZM1.70711 13.7071L6.29289 9.12132L4.87868 7.70711L0.292893 12.2929L1.70711 13.7071ZM7.70711 9.12132L12.2929 13.7071L13.7071 12.2929L9.12132 7.70711L7.70711 9.12132ZM6.29289 9.12132C6.68342 8.7308 7.31658 8.7308 7.70711 9.12132L9.12132 7.70711C7.94975 6.53553 6.05025 6.53553 4.87868 7.70711L6.29289 9.12132ZM11.7071 11.7071L13.2929 10.1213L11.8787 8.70711L10.2929 10.2929L11.7071 11.7071ZM14.7071 10.1213L16.2929 11.7071L17.7071 10.2929L16.1213 8.70711L14.7071 10.1213ZM13.2929 10.1213C13.6834 9.7308 14.3166 9.7308 14.7071 10.1213L16.1213 8.70711C14.9497 7.53553 13.0503 7.53554 11.8787 8.70711L13.2929 10.1213ZM11 6H11.01V4H11V6Z" fill="#189E66"/>
</svg>
