<svg width="14" height="14" viewBox="0 0 14 14" fill="none" xmlns="http://www.w3.org/2000/svg">
<path d="M10.7123 3.28769C12.7626 5.33794 12.7626 8.66206 10.7123 10.7123L11.773 11.773C14.409 9.13693 14.409 4.86307 11.773 2.22703L10.7123 3.28769ZM10.7123 10.7123C8.66206 12.7626 5.33794 12.7626 3.28769 10.7123L2.22703 11.773C4.86307 14.409 9.13693 14.409 11.773 11.773L10.7123 10.7123ZM3.28769 10.7123C1.23744 8.66206 1.23744 5.33794 3.28769 3.28769L2.22703 2.22703C-0.40901 4.86307 -0.40901 9.13693 2.22703 11.773L3.28769 10.7123ZM3.28769 3.28769C5.33794 1.23744 8.66206 1.23744 10.7123 3.28769L11.773 2.22703C9.13693 -0.40901 4.86307 -0.40901 2.22703 2.22703L3.28769 3.28769ZM2.22703 3.28769L10.7123 11.773L11.773 10.7123L3.28769 2.22703L2.22703 3.28769Z" fill="#FF3E3E"/>
</svg>
