<svg width="32" height="32" viewBox="0 0 32 32" fill="none" xmlns="http://www.w3.org/2000/svg">
<path d="M4.33333 15.3333H27.6667V13.3333H4.33333V15.3333ZM30 17.6667V27.6667H32V17.6667H30ZM27.6667 30H4.33333V32H27.6667V30ZM2 27.6667V17.6667H0V27.6667H2ZM4.33333 30C3.04467 30 2 28.9553 2 27.6667H0C0 30.0599 1.9401 32 4.33333 32V30ZM30 27.6667C30 28.9553 28.9553 30 27.6667 30V32C30.0599 32 32 30.0599 32 27.6667H30ZM27.6667 15.3333C28.9553 15.3333 30 16.378 30 17.6667H32C32 15.2734 30.0599 13.3333 27.6667 13.3333V15.3333ZM4.33333 13.3333C1.9401 13.3333 0 15.2734 0 17.6667H2C2 16.378 3.04467 15.3333 4.33333 15.3333V13.3333ZM11 2H21V0H11V2ZM3.33333 11V14.3333H5.33333V11H3.33333ZM26.6667 11V14.3333H28.6667V11H26.6667ZM6.66667 4.33333V7.66667H8.66667V4.33333H6.66667ZM7.66667 8.66667H24.3333V6.66667H7.66667V8.66667ZM23.3333 4.33333V7.66667H25.3333V4.33333H23.3333ZM21 2C22.2887 2 23.3333 3.04467 23.3333 4.33333H25.3333C25.3333 1.9401 23.3932 0 21 0V2ZM11 0C8.60677 0 6.66667 1.9401 6.66667 4.33333H8.66667C8.66667 3.04467 9.71134 2 11 2V0ZM28.6667 11C28.6667 8.60677 26.7266 6.66667 24.3333 6.66667V8.66667C25.622 8.66667 26.6667 9.71134 26.6667 11H28.6667ZM5.33333 11C5.33333 9.71134 6.378 8.66667 7.66667 8.66667V6.66667C5.27343 6.66667 3.33333 8.60677 3.33333 11H5.33333Z" fill="#116F47"/>
</svg>
