<svg width="16" height="16" viewBox="0 0 16 16" fill="none" xmlns="http://www.w3.org/2000/svg">
<path d="M3.33334 13.334L6.80199 8.66732" stroke="#444947" stroke-width="1.5" stroke-linecap="round" stroke-linejoin="round"/>
<path d="M9.09293 5.43338L10.1533 3.92743L10.3388 3.65223M10.3388 3.65223L10.5243 3.37704C10.7305 3.09888 11.2665 2.57039 11.7612 2.68165C12.3796 2.82073 14.4094 3.57665 14.6194 4.53316C14.9156 5.88131 13.7452 6.71094 13.1623 6.71094C11.8841 6.71094 11.1224 5.7776 10.5395 4.22205L10.3388 3.65223Z" stroke="#444947" stroke-width="1.5" stroke-linecap="round" stroke-linejoin="round"/>
<path d="M12.6667 13.334L5.8467 3.92825L5.66117 3.65306M5.66117 3.65306L5.47564 3.37786C5.2695 3.09971 4.73353 2.57121 4.23878 2.68248C3.62035 2.82155 1.59063 3.57747 1.38054 4.53398C1.08443 5.88213 2.25481 6.71176 2.83765 6.71176C4.11586 6.71176 4.8776 5.77843 5.46044 4.22287L5.66117 3.65306Z" stroke="#444947" stroke-width="1.5" stroke-linecap="round" stroke-linejoin="round"/>
</svg>
