<svg width="40" height="40" viewBox="0 0 40 40" fill="none" xmlns="http://www.w3.org/2000/svg">
<path d="M31.6666 33.333L14.6167 9.81868L14.1529 9.13069M14.1529 9.13069L13.6891 8.4427C13.1737 7.74731 11.8338 6.42608 10.5969 6.70424C9.05087 7.05193 3.97657 8.94173 3.45134 11.333C2.71106 14.7034 5.637 16.7775 7.09411 16.7775C10.2896 16.7775 12.194 14.4441 13.6511 10.5552L14.1529 9.13069Z" stroke="#116F47" stroke-width="2" stroke-linecap="round" stroke-linejoin="round"/>
<path d="M8.33337 33.333L17.005 21.6663" stroke="#116F47" stroke-width="2" stroke-linecap="round" stroke-linejoin="round"/>
<path d="M29.403 6.70413C28.1661 6.42598 26.8262 7.74721 26.3109 8.44259L25.847 9.13058L26.3488 10.5551C27.806 14.444 29.7103 16.7773 32.9058 16.7773C34.3629 16.7773 37.2889 14.7033 36.5486 11.3329C36.0234 8.94163 30.9491 7.05182 29.403 6.70413Z" fill="#116F47"/>
<path d="M22.7323 13.5835L25.3832 9.81857L25.847 9.13058M25.847 9.13058L26.3109 8.44259C26.8262 7.74721 28.1661 6.42598 29.403 6.70413C30.9491 7.05182 36.0234 8.94163 36.5486 11.3329C37.2889 14.7033 34.3629 16.7773 32.9058 16.7773C29.7103 16.7773 27.806 14.444 26.3488 10.5551L25.847 9.13058Z" stroke="#116F47" stroke-width="2" stroke-linecap="round" stroke-linejoin="round"/>
</svg>
