<svg width="14" height="14" viewBox="0 0 14 14" fill="none" xmlns="http://www.w3.org/2000/svg">
<path d="M5 9.66669H5.75C5.75 9.25247 5.41421 8.91669 5 8.91669V9.66669ZM5 13H4.25C4.25 13.3034 4.43273 13.5768 4.71299 13.6929C4.99324 13.809 5.31583 13.7448 5.53033 13.5303L5 13ZM8.33333 9.66669V8.91669C8.13442 8.91669 7.94366 8.9957 7.803 9.13636L8.33333 9.66669ZM4.33333 4.91669C3.91912 4.91669 3.58333 5.25247 3.58333 5.66669C3.58333 6.0809 3.91912 6.41669 4.33333 6.41669V4.91669ZM4.34 6.41669C4.75421 6.41669 5.09 6.0809 5.09 5.66669C5.09 5.25247 4.75421 4.91669 4.34 4.91669V6.41669ZM7 4.91669C6.58579 4.91669 6.25 5.25247 6.25 5.66669C6.25 6.0809 6.58579 6.41669 7 6.41669V4.91669ZM7.00667 6.41669C7.42088 6.41669 7.75667 6.0809 7.75667 5.66669C7.75667 5.25247 7.42088 4.91669 7.00667 4.91669V6.41669ZM9.66667 4.91669C9.25245 4.91669 8.91667 5.25247 8.91667 5.66669C8.91667 6.0809 9.25245 6.41669 9.66667 6.41669V4.91669ZM9.67333 6.41669C10.0875 6.41669 10.4233 6.0809 10.4233 5.66669C10.4233 5.25247 10.0875 4.91669 9.67333 4.91669V6.41669ZM2.33333 2.41669H11.6667V0.916687H2.33333V2.41669ZM12.25 3.00002V8.33335H13.75V3.00002H12.25ZM1.75 8.33335V3.00002H0.25V8.33335H1.75ZM5 8.91669H2.33333V10.4167H5V8.91669ZM5.75 13V9.66669H4.25V13H5.75ZM11.6667 8.91669H8.33333V10.4167H11.6667V8.91669ZM7.803 9.13636L4.46967 12.4697L5.53033 13.5303L8.86366 10.197L7.803 9.13636ZM0.25 8.33335C0.25 9.48395 1.18274 10.4167 2.33333 10.4167V8.91669C2.01117 8.91669 1.75 8.65552 1.75 8.33335H0.25ZM12.25 8.33335C12.25 8.65552 11.9888 8.91669 11.6667 8.91669V10.4167C12.8173 10.4167 13.75 9.48395 13.75 8.33335H12.25ZM11.6667 2.41669C11.9888 2.41669 12.25 2.67785 12.25 3.00002H13.75C13.75 1.84943 12.8173 0.916687 11.6667 0.916687V2.41669ZM2.33333 0.916687C1.18274 0.916687 0.25 1.84943 0.25 3.00002H1.75C1.75 2.67785 2.01117 2.41669 2.33333 2.41669V0.916687ZM4.33333 6.41669H4.34V4.91669H4.33333V6.41669ZM7 6.41669H7.00667V4.91669H7V6.41669ZM9.66667 6.41669H9.67333V4.91669H9.66667V6.41669Z" fill="#6F7874"/>
</svg>
