<svg width="18" height="18" viewBox="0 0 18 18" fill="none" xmlns="http://www.w3.org/2000/svg">
<path d="M6.62623 9.95956C6.2357 10.3501 6.2357 10.9832 6.62623 11.3738C7.01675 11.7643 7.64992 11.7643 8.04044 11.3738L6.62623 9.95956ZM11.3738 8.04044C11.7643 7.64992 11.7643 7.01675 11.3738 6.62623C10.9832 6.2357 10.3501 6.2357 9.95956 6.62623L11.3738 8.04044ZM8.04044 6.62623C7.64992 6.2357 7.01675 6.2357 6.62623 6.62623C6.2357 7.01675 6.2357 7.64992 6.62623 8.04044L8.04044 6.62623ZM9.95956 11.3738C10.3501 11.7643 10.9832 11.7643 11.3738 11.3738C11.7643 10.9832 11.7643 10.3501 11.3738 9.95956L9.95956 11.3738ZM15.5 9C15.5 12.5899 12.5899 15.5 9 15.5V17.5C13.6944 17.5 17.5 13.6944 17.5 9H15.5ZM9 15.5C5.41015 15.5 2.5 12.5899 2.5 9H0.5C0.5 13.6944 4.30558 17.5 9 17.5V15.5ZM2.5 9C2.5 5.41015 5.41015 2.5 9 2.5V0.5C4.30558 0.5 0.5 4.30558 0.5 9H2.5ZM9 2.5C12.5899 2.5 15.5 5.41015 15.5 9H17.5C17.5 4.30558 13.6944 0.5 9 0.5V2.5ZM8.04044 11.3738L9.70711 9.70711L8.29289 8.29289L6.62623 9.95956L8.04044 11.3738ZM9.70711 9.70711L11.3738 8.04044L9.95956 6.62623L8.29289 8.29289L9.70711 9.70711ZM6.62623 8.04044L8.29289 9.70711L9.70711 8.29289L8.04044 6.62623L6.62623 8.04044ZM8.29289 9.70711L9.95956 11.3738L11.3738 9.95956L9.70711 8.29289L8.29289 9.70711Z" fill="#444947"/>
</svg>
