<svg width="42" height="42" viewBox="0 0 42 42" fill="none" xmlns="http://www.w3.org/2000/svg">
<rect x="1" y="1" width="40" height="40" rx="20" fill="#189E66"/>
<path d="M29.1122 11.8877L29.8193 11.1806L29.8193 11.1806L29.1122 11.8877ZM14.7708 29.912V30.912C15.0361 30.912 15.2904 30.8066 15.4779 30.6191L14.7708 29.912ZM11.125 29.912H10.125C10.125 30.4642 10.5727 30.912 11.125 30.912V29.912ZM11.125 26.1921L10.4179 25.485C10.2304 25.6725 10.125 25.9269 10.125 26.1921H11.125ZM26.1365 12.5948C26.7629 11.9684 27.7786 11.9684 28.4051 12.5948L29.8193 11.1806C28.4118 9.77312 26.1298 9.77312 24.7222 11.1806L26.1365 12.5948ZM28.4051 12.5948C29.0316 13.2213 29.0316 14.237 28.4051 14.8635L29.8193 16.2777C31.2268 14.8702 31.2268 12.5882 29.8193 11.1806L28.4051 12.5948ZM28.4051 14.8635L14.0637 29.2048L15.4779 30.6191L29.8193 16.2777L28.4051 14.8635ZM14.7708 28.912H11.125V30.912H14.7708V28.912ZM24.7222 11.1806L10.4179 25.485L11.8321 26.8992L26.1365 12.5948L24.7222 11.1806ZM10.125 26.1921V29.912H12.125V26.1921H10.125ZM23.1597 14.1573L26.8426 17.8402L28.2568 16.426L24.574 12.7431L23.1597 14.1573Z" fill="white"/>
<rect x="1" y="1" width="40" height="40" rx="20" stroke="white"/>
</svg>
