<svg width="20" height="18" viewBox="0 0 20 18" fill="none" xmlns="http://www.w3.org/2000/svg">
<path d="M6.39999 0.599976C5.73725 0.599976 5.19999 1.13723 5.19999 1.79998C5.19999 2.46272 5.73725 2.99998 6.39999 2.99998H13.6C14.2627 2.99998 14.8 2.46272 14.8 1.79998C14.8 1.13723 14.2627 0.599976 13.6 0.599976H6.39999Z" />
<path d="M2.79999 5.39998C2.79999 4.73723 3.33725 4.19998 3.99999 4.19998H16C16.6627 4.19998 17.2 4.73723 17.2 5.39998C17.2 6.06272 16.6627 6.59998 16 6.59998H3.99999C3.33725 6.59998 2.79999 6.06272 2.79999 5.39998Z" />
<path d="M0.399994 10.2C0.399994 8.87449 1.47451 7.79998 2.79999 7.79998H17.2C18.5255 7.79998 19.6 8.87449 19.6 10.2V15C19.6 16.3255 18.5255 17.4 17.2 17.4H2.79999C1.47451 17.4 0.399994 16.3255 0.399994 15V10.2Z" />
</svg>
