<svg width="14" height="14" viewBox="0 0 14 14" fill="none" xmlns="http://www.w3.org/2000/svg">
<path d="M1 13H0.25C0.25 13.4142 0.585786 13.75 1 13.75L1 13ZM9 13V13.75C9.41421 13.75 9.75 13.4142 9.75 13H9ZM11.75 5C11.75 4.58579 11.4142 4.25 11 4.25C10.5858 4.25 10.25 4.58579 10.25 5H11.75ZM10.25 9C10.25 9.41421 10.5858 9.75 11 9.75C11.4142 9.75 11.75 9.41421 11.75 9H10.25ZM13 7.75C13.4142 7.75 13.75 7.41421 13.75 7C13.75 6.58579 13.4142 6.25 13 6.25V7.75ZM9 6.25C8.58579 6.25 8.25 6.58579 8.25 7C8.25 7.41421 8.58579 7.75 9 7.75V6.25ZM6.91667 3.66667C6.91667 4.72521 6.05855 5.58333 5 5.58333V7.08333C6.88697 7.08333 8.41667 5.55364 8.41667 3.66667H6.91667ZM5 5.58333C3.94145 5.58333 3.08333 4.72521 3.08333 3.66667H1.58333C1.58333 5.55364 3.11303 7.08333 5 7.08333V5.58333ZM3.08333 3.66667C3.08333 2.60812 3.94145 1.75 5 1.75V0.25C3.11303 0.25 1.58333 1.77969 1.58333 3.66667H3.08333ZM5 1.75C6.05855 1.75 6.91667 2.60812 6.91667 3.66667H8.41667C8.41667 1.77969 6.88697 0.25 5 0.25V1.75ZM1.75 12.3333C1.75 10.5384 3.20507 9.08333 5 9.08333V7.58333C2.37665 7.58333 0.25 9.70998 0.25 12.3333H1.75ZM5 9.08333C6.79493 9.08333 8.25 10.5384 8.25 12.3333H9.75C9.75 9.70998 7.62335 7.58333 5 7.58333V9.08333ZM0.25 12.3333V13H1.75V12.3333H0.25ZM1 13.75H9V12.25H1V13.75ZM9.75 13V12.3333H8.25V13H9.75ZM10.25 5V7H11.75V5H10.25ZM10.25 7V9H11.75V7H10.25ZM13 6.25H11V7.75H13V6.25ZM11 6.25H9V7.75H11V6.25Z" fill="white"/>
</svg>
