<svg width="120" height="120" viewBox="0 0 120 120" fill="none" xmlns="http://www.w3.org/2000/svg">
<rect width="120" height="120" fill="#E8F5F0"/>
<g clip-path="url(#clip0_3657_51674)">
<path d="M74.1636 30.4999C74.1636 30.1905 74.0407 29.8938 73.8219 29.675C73.6031 29.4562 73.3063 29.3333 72.9969 29.3333H47.3302C47.0208 29.3333 46.7241 29.4562 46.5053 29.675C46.2865 29.8938 46.1636 30.1905 46.1636 30.4999V31.6666H74.1636V30.4999Z" fill="#116F47"/>
<path d="M76.4733 35.1667C76.4733 34.8572 76.3504 34.5605 76.1316 34.3417C75.9128 34.1229 75.6161 34 75.3066 34H44.9733C44.6639 34 44.3671 34.1229 44.1483 34.3417C43.9296 34.5605 43.8066 34.8572 43.8066 35.1667V36.3333H76.4733V35.1667Z" fill="#116F47"/>
<path d="M76.4735 38.6667H43.5268C42.9451 38.6667 42.3872 38.8978 41.9759 39.3092C41.5646 39.7205 41.3335 40.2784 41.3335 40.8601V62.1401C41.3335 62.7218 41.5646 63.2797 41.9759 63.691C42.3872 64.1023 42.9451 64.3334 43.5268 64.3334H76.4735C77.0552 64.3334 77.6131 64.1023 78.0244 63.691C78.4357 63.2797 78.6668 62.7218 78.6668 62.1401V40.8601C78.6668 40.2784 78.4357 39.7205 78.0244 39.3092C77.6131 38.8978 77.0552 38.6667 76.4735 38.6667ZM48.9868 42.6917C49.6791 42.6917 50.3558 42.897 50.9313 43.2816C51.5069 43.6662 51.9555 44.2128 52.2204 44.8524C52.4853 45.4919 52.5546 46.1956 52.4196 46.8746C52.2845 47.5535 51.9512 48.1771 51.4617 48.6666C50.9722 49.1561 50.3486 49.4894 49.6696 49.6245C48.9907 49.7595 48.287 49.6902 47.6474 49.4253C47.0079 49.1604 46.4613 48.7118 46.0767 48.1362C45.6921 47.5607 45.4868 46.884 45.4868 46.1917C45.4868 45.2635 45.8556 44.3733 46.512 43.7169C47.1683 43.0605 48.0586 42.6917 48.9868 42.6917ZM74.0002 59.6667H46.0002L54.7035 50.9517C54.8586 50.7979 55.0683 50.7115 55.2868 50.7115C55.5054 50.7115 55.715 50.7979 55.8702 50.9517L60.1635 55.2451L66.0785 49.1667C66.2336 49.0129 66.4433 48.9265 66.6618 48.9265C66.8804 48.9265 67.09 49.0129 67.2452 49.1667L74.0002 55.9217V59.6667Z" fill="#116F47"/>
</g>
<path d="M40.2173 88.15C41.8973 88.15 42.9473 87.34 43.3223 86.425H43.3823V88H44.8673V82.84H40.1723V84.235H43.3073V84.475C43.3073 86.05 42.4373 86.59 40.5923 86.59C38.3723 86.59 37.4723 85.585 37.4723 82.975C37.4723 80.365 38.3423 79.36 40.4573 79.36C42.3773 79.36 43.1423 80.035 43.1423 81.55V81.655H44.8523V81.55C44.8523 79.24 43.2173 77.8 40.5323 77.8C37.5473 77.8 35.7473 79.84 35.7473 82.975C35.7473 86.17 37.3673 88.15 40.2173 88.15ZM48.817 88.15C50.227 88.15 51.082 87.535 51.517 86.83H51.592V88H53.092V83.47C53.092 81.655 52.042 80.395 49.957 80.395C47.962 80.395 46.657 81.595 46.657 83.26V83.41H48.217V83.185C48.217 82.195 48.682 81.82 49.867 81.82C51.037 81.82 51.547 82.15 51.547 83.26V83.665L48.937 84.055C47.347 84.28 46.447 84.925 46.447 86.155C46.447 87.46 47.482 88.15 48.817 88.15ZM48.022 86.035C48.022 85.48 48.322 85.285 49.177 85.165L51.547 84.805V84.94C51.547 86.44 50.392 86.86 49.342 86.86C48.397 86.86 48.022 86.62 48.022 86.035ZM56.5632 88V77.95H54.9432V88H56.5632ZM60.1298 88V77.95H58.5098V88H60.1298ZM65.2743 88.15C67.2843 88.15 68.6193 87.16 68.6193 85.63V85.495H67.0143V85.615C67.0143 86.29 66.5343 86.71 65.2893 86.71C63.7293 86.71 63.2343 86.02 63.1743 84.655H68.5893C68.6343 84.43 68.6793 84.025 68.6793 83.635C68.6793 81.595 67.2693 80.395 65.2593 80.395C63.0393 80.395 61.6593 81.955 61.6593 84.265C61.6593 86.59 62.8143 88.15 65.2743 88.15ZM65.2293 81.76C66.5043 81.76 67.1943 82.3 67.1343 83.575H63.1893C63.2793 82.42 63.8193 81.76 65.2293 81.76ZM71.892 88V83.14C71.892 82.15 72.252 81.775 73.227 81.775C74.172 81.775 74.457 82.135 74.457 83.125V83.425H76.077V82.93C76.077 81.535 75.477 80.395 73.917 80.395C72.822 80.395 72.132 80.995 71.832 81.685H71.757V80.5H70.272V88H71.892ZM78.6292 90.55C79.7992 90.55 80.5192 90.205 81.0742 88.885L84.5992 80.545H82.8142L81.4492 84.16L80.8342 85.78H80.7142L80.0392 84.16L78.5392 80.545H76.7542L79.9192 87.805L79.6342 88.435C79.3942 88.99 79.1692 89.095 78.5242 89.095H77.5042V90.415C77.7592 90.49 78.2242 90.55 78.6292 90.55Z" fill="#116F47"/>
<defs>
<clipPath id="clip0_3657_51674">
<rect width="42" height="42" fill="white" transform="translate(39 27)"/>
</clipPath>
</defs>
</svg>
