<svg width="32" height="32" viewBox="0 0 32 32" fill="none" xmlns="http://www.w3.org/2000/svg">
<path d="M27.1713 5.02512L23.0755 9.9626C22.935 10.1328 22.7391 10.2364 22.5344 10.2698L9.28748 26.9208L7.63894 28.7789C7.63894 28.7789 3.82514 29.5052 2.34211 27.6517C0.763046 25.6782 0.894855 22.2085 5.2488 24.3347C5.31515 24.3673 5.38429 24.4017 5.45418 24.438C5.45418 24.438 7.51144 25.6389 8.15401 26.2541L21.511 9.44103C21.5063 9.2441 21.5666 9.04479 21.7039 8.87941L25.8013 3.94244C26.1082 3.57216 26.6643 3.51527 27.0423 3.81365C27.4204 4.11203 27.4788 4.65491 27.1713 5.02512Z" fill="white"/>
<path d="M4.86337 5.02512L8.95917 9.9626C9.09969 10.1328 9.29558 10.2364 9.50027 10.2698L22.7472 26.9208L24.3957 28.7789C24.3957 28.7789 28.2095 29.5052 29.6926 27.6517C31.2716 25.6782 31.1398 22.2085 26.7859 24.3347C26.7195 24.3673 26.6504 24.4017 26.5805 24.438C26.5805 24.438 24.5232 25.6389 23.8807 26.2541L10.5236 9.44103C10.5284 9.2441 10.468 9.04479 10.3308 8.87941L6.2334 3.94244C5.92651 3.57216 5.3704 3.51527 4.99232 3.81365C4.61424 4.11203 4.55582 4.65491 4.86337 5.02512Z" fill="white"/>
<circle cx="16" cy="29" r="2" fill="white"/>
</svg>
