<svg width="40" height="40" viewBox="0 0 40 40" fill="none" xmlns="http://www.w3.org/2000/svg">
<path d="M33.9641 6.2814L28.8444 12.4533C28.6687 12.666 28.4239 12.7955 28.168 12.8373L11.6094 33.651L9.54867 35.9737C9.54867 35.9737 4.78143 36.8815 2.92763 34.5646C0.953808 32.0977 1.11857 27.7606 6.561 30.4183C6.64393 30.4592 6.73036 30.5021 6.81772 30.5475C6.81772 30.5475 9.3893 32.0486 10.1925 32.8176L26.8888 11.8013C26.8828 11.5551 26.9583 11.306 27.1298 11.0993L32.2516 4.92806C32.6352 4.46519 33.3303 4.39409 33.8029 4.76706C34.2755 5.14004 34.3486 5.81863 33.9641 6.2814Z" fill="#116F47"/>
<path d="M6.07922 6.28188L11.199 12.4537C11.3746 12.6665 11.6195 12.796 11.8753 12.8378L28.434 33.6515L30.4947 35.9742C30.4947 35.9742 35.2619 36.882 37.1157 34.5651C39.0895 32.0982 38.9248 27.7611 33.4823 30.4188C33.3994 30.4597 33.313 30.5026 33.2256 30.548C33.2256 30.548 30.654 32.0491 29.8508 32.8181L13.1546 11.8018C13.1605 11.5556 13.085 11.3065 12.9135 11.0998L7.79175 4.92854C7.40813 4.46568 6.713 4.39458 6.2404 4.76755C5.7678 5.14053 5.69478 5.81912 6.07922 6.28188Z" fill="#116F47"/>
<circle cx="20" cy="36.25" r="2.5" fill="#116F47"/>
</svg>
