<svg width="24" height="24" viewBox="0 0 24 24" fill="none" xmlns="http://www.w3.org/2000/svg">
<path d="M4.73354 14.913V12.7217H7.04801V14.913H8.78155V9.08696H7.04801V11.2522H4.73354V9.08696H3V14.913H4.73354Z" fill="#189E66"/>
<path d="M12.3077 15C14.2626 15 15.2123 14.0435 15.2123 12.687V12.487H13.3589V12.513C13.3589 13.1826 13.1284 13.4087 12.2708 13.4087C11.3856 13.4087 11.0998 13.2087 11.0998 12C11.0998 10.7913 11.3856 10.5913 12.2708 10.5913C13.1284 10.5913 13.3589 10.8174 13.3589 11.487V11.513H15.2123V11.313C15.2123 9.95652 14.2626 9 12.3077 9C10.316 9 9.23713 10.1826 9.23713 12C9.23713 13.8174 10.316 15 12.3077 15Z" fill="#189E66"/>
<path d="M17.3854 14.913V13.3739H18.5749C20.0502 13.3739 21 12.6174 21 11.2348C21 9.89565 20.0502 9.08696 18.5749 9.08696H15.6518V14.913H17.3854ZM18.5103 10.5565C19.1005 10.5565 19.2665 10.6609 19.2665 11.2348C19.2665 11.8087 19.1005 11.913 18.5103 11.913H17.3854V10.5565H18.5103Z" fill="#189E66"/>
<rect x="1" y="4" width="22" height="16" rx="3" stroke="#189E66" stroke-width="2" stroke-linecap="round" stroke-linejoin="round"/>
</svg>
