<svg width="25" height="24" viewBox="0 0 25 24" fill="none" xmlns="http://www.w3.org/2000/svg">
<path d="M5.59998 20L10.8029 13" stroke="#878F8C" stroke-width="2" stroke-linecap="round" stroke-linejoin="round"/>
<path d="M14.2394 8.15008L15.8299 5.89114L16.1082 5.47835M16.1082 5.47835L16.3865 5.06556C16.6957 4.64832 17.4997 3.85558 18.2418 4.02248C19.1694 4.23109 22.214 5.36497 22.5292 6.79974C22.9733 8.82197 21.2178 10.0664 20.3435 10.0664C18.4262 10.0664 17.2836 8.66641 16.4093 6.33307L16.1082 5.47835Z" stroke="#878F8C" stroke-width="2" stroke-linecap="round" stroke-linejoin="round"/>
<path d="M19.6 20L9.37004 5.8914L9.09175 5.47861M9.09175 5.47861L8.81345 5.06581C8.50424 4.64858 7.70028 3.85584 6.95817 4.02274C6.03052 4.23135 2.98594 5.36523 2.6708 6.8C2.22664 8.82222 3.9822 10.0667 4.85647 10.0667C6.77377 10.0667 7.91639 8.66667 8.79066 6.33333L9.09175 5.47861Z" stroke="#878F8C" stroke-width="2" stroke-linecap="round" stroke-linejoin="round"/>
</svg>
