<svg width="18" height="18" viewBox="0 0 18 18" fill="none" xmlns="http://www.w3.org/2000/svg">
<path d="M9 9H10C10 8.44772 9.55228 8 9 8V9ZM9 12.3333H8C8 12.8856 8.44772 13.3333 9 13.3333V12.3333ZM9.83333 13.3333C10.3856 13.3333 10.8333 12.8856 10.8333 12.3333C10.8333 11.781 10.3856 11.3333 9.83333 11.3333V13.3333ZM8.16667 8C7.61438 8 7.16667 8.44772 7.16667 9C7.16667 9.55228 7.61438 10 8.16667 10V8ZM9 4.66667C8.44772 4.66667 8 5.11438 8 5.66667C8 6.21895 8.44772 6.66667 9 6.66667V4.66667ZM9.00833 6.66667C9.56062 6.66667 10.0083 6.21895 10.0083 5.66667C10.0083 5.11438 9.56062 4.66667 9.00833 4.66667V6.66667ZM8 9V12.3333H10V9H8ZM9 13.3333H9.83333V11.3333H9V13.3333ZM9 8H8.16667V10H9V8ZM15.5 9C15.5 12.5899 12.5899 15.5 9 15.5V17.5C13.6944 17.5 17.5 13.6944 17.5 9H15.5ZM9 15.5C5.41015 15.5 2.5 12.5899 2.5 9H0.5C0.5 13.6944 4.30558 17.5 9 17.5V15.5ZM2.5 9C2.5 5.41015 5.41015 2.5 9 2.5V0.5C4.30558 0.5 0.5 4.30558 0.5 9H2.5ZM9 2.5C12.5899 2.5 15.5 5.41015 15.5 9H17.5C17.5 4.30558 13.6944 0.5 9 0.5V2.5ZM9 6.66667H9.00833V4.66667H9V6.66667Z"/>
</svg>
