<svg width="16" height="16" viewBox="0 0 16 16" fill="none" xmlns="http://www.w3.org/2000/svg">
<path d="M2 6.49842L6.5 9.56725L7.2604 10.0858C7.70827 10.3912 8.29173 10.3912 8.7396 10.0858L9.5 9.56725L14 6.49842M7.2604 2.22907L2.59373 5.41156C2.2228 5.66452 2 6.09038 2 6.54641V12.6361C2 13.3894 2.59695 14 3.33333 14H12.6667C13.403 14 14 13.3894 14 12.6361V6.54641C14 6.09038 13.7772 5.66452 13.4063 5.41156L8.7396 2.22907C8.29173 1.92364 7.70827 1.92364 7.2604 2.22907Z" stroke="#189E66" stroke-width="1.5" stroke-linecap="round" stroke-linejoin="round"/>
<path d="M7.99996 5V6.33333M7.99996 6.33333V7.66667M7.99996 6.33333H9.33329M7.99996 6.33333H6.66663" stroke="#189E66" stroke-width="1.5" stroke-linecap="round" stroke-linejoin="round"/>
</svg>
