<svg width="14" height="14" viewBox="0 0 14 14" xmlns="http://www.w3.org/2000/svg">
<path d="M3.63146 12.263L4.30228 11.9275H4.30228L3.63146 12.263ZM1.29812 7.59629L0.627303 7.9317H0.627303L1.29812 7.59629ZM7.82589 12.9602L7.64398 12.2326L7.64399 12.2326L7.82589 12.9602ZM10.3333 6.33333L10.9574 5.91731C11.0395 6.04051 11.0833 6.18526 11.0833 6.33333H10.3333ZM6.99998 4.91667C7.41419 4.91667 7.74998 5.25245 7.74998 5.66667C7.74998 6.08088 7.41419 6.41667 6.99998 6.41667V4.91667ZM9.99998 6.41667C9.58577 6.41667 9.24998 6.08088 9.24998 5.66667C9.24998 5.25245 9.58577 4.91667 9.99998 4.91667V6.41667ZM8.07175 2.94099L7.44772 3.35702L8.07175 2.94099ZM2.49069 4.91667H5.66665V6.41667H2.49069V4.91667ZM2.96064 12.5984L0.627303 7.9317L1.96894 7.26088L4.30228 11.9275L2.96064 12.5984ZM10.5152 13.0609L8.00779 13.6878L7.64399 12.2326L10.1514 11.6057L10.5152 13.0609ZM7.50251 13.75H4.82403V12.25H7.50251V13.75ZM4.91665 5.66667V2.33333H6.41665V5.66667H4.91665ZM6.99998 0.25H7.06363V1.75H6.99998V0.25ZM11.0833 6.33333V12.3333H9.58331V6.33333H11.0833ZM8.00779 13.6878C7.84254 13.7291 7.67284 13.75 7.50251 13.75V12.25C7.5502 12.25 7.59772 12.2442 7.64398 12.2326L8.00779 13.6878ZM4.30228 11.9275C4.40109 12.1252 4.60308 12.25 4.82403 12.25V13.75C4.03492 13.75 3.31354 13.3042 2.96064 12.5984L4.30228 11.9275ZM4.91665 2.33333C4.91665 1.18274 5.84939 0.25 6.99998 0.25V1.75C6.67781 1.75 6.41665 2.01117 6.41665 2.33333H4.91665ZM2.49069 6.41667C2.05705 6.41667 1.77501 6.87302 1.96894 7.26088L0.627303 7.9317C-0.0653019 6.54648 0.941981 4.91667 2.49069 4.91667V6.41667ZM5.66665 4.91667H6.99998V6.41667H5.66665V4.91667ZM9.99998 4.91667H11.6666V6.41667H9.99998V4.91667ZM13.75 7V11H12.25V7H13.75ZM11.6666 13.0833H10.3333V11.5833H11.6666V13.0833ZM13.75 11C13.75 12.1506 12.8172 13.0833 11.6666 13.0833V11.5833C11.9888 11.5833 12.25 11.3222 12.25 11H13.75ZM11.6666 4.91667C12.8172 4.91667 13.75 5.84941 13.75 7H12.25C12.25 6.67783 11.9888 6.41667 11.6666 6.41667V4.91667ZM8.69579 2.52497L10.9574 5.91731L9.70928 6.74936L7.44772 3.35702L8.69579 2.52497ZM8.41665 1.60302C8.41665 1.93115 8.51378 2.25194 8.69579 2.52497L7.44772 3.35702C7.10143 2.83759 6.91665 2.22729 6.91665 1.60302H8.41665ZM7.06363 0.25C7.81088 0.25 8.41665 0.855766 8.41665 1.60302H6.91665C6.91665 1.68419 6.98245 1.75 7.06363 1.75V0.25Z" />
</svg>
