<svg width="62" height="61" viewBox="0 0 62 61" fill="none" xmlns="http://www.w3.org/2000/svg">
<path d="M27.302 2.46534L27.8567 3.29739L27.302 2.46534ZM34.698 2.46534L35.2527 1.63329L34.698 2.46534ZM58.0313 18.0209L57.4766 18.8529L58.0313 18.0209ZM3.96867 18.0209L3.41396 17.1888L3.96867 18.0209ZM1.5547 22.5013C1.09517 22.1949 0.474302 22.3191 0.16795 22.7786C-0.138403 23.2382 -0.0142289 23.859 0.4453 24.1654L1.5547 22.5013ZM27.302 40.868L26.7473 41.7001L27.302 40.868ZM34.698 40.868L35.2527 41.7001L34.698 40.868ZM61.5547 24.1654C62.0142 23.859 62.1384 23.2382 61.8321 22.7786C61.5257 22.3191 60.9048 22.1949 60.4453 22.5013L61.5547 24.1654ZM38.5 38.3333L37.9453 37.5013L38.5 38.3333ZM60 23.5679V53.3333H62V23.5679H60ZM54.3333 59H7.66667V61H54.3333V59ZM2 53.3333V23.5679H0V53.3333H2ZM4.52337 18.8529L27.8567 3.29739L26.7473 1.63329L3.41396 17.1888L4.52337 18.8529ZM34.1433 3.29739L57.4766 18.8529L58.586 17.1888L35.2527 1.63329L34.1433 3.29739ZM27.8567 3.29739C29.7601 2.02843 32.2399 2.02843 34.1433 3.29739L35.2527 1.63329C32.6775 -0.0835321 29.3225 -0.0835325 26.7473 1.63329L27.8567 3.29739ZM7.66667 59C4.53705 59 2 56.463 2 53.3333H0C0 57.5675 3.43248 61 7.66667 61V59ZM60 53.3333C60 56.463 57.4629 59 54.3333 59V61C58.5675 61 62 57.5675 62 53.3333H60ZM62 23.5679C62 21.0045 60.7189 18.6107 58.586 17.1888L57.4766 18.8529C59.0531 19.9039 60 21.6732 60 23.5679H62ZM2 23.5679C2 21.6732 2.94691 19.9039 4.52337 18.8529L3.41396 17.1888C1.28111 18.6107 0 21.0045 0 23.5679H2ZM26.7473 41.7001C29.3225 43.4169 32.6775 43.4169 35.2527 41.7001L34.1433 40.036C32.2399 41.3049 29.7601 41.3049 27.8567 40.036L26.7473 41.7001ZM37.9453 39.1654L60.4453 54.1654L61.5547 52.5013L39.0547 37.5013L37.9453 39.1654ZM35.2527 41.7001L39.0547 39.1654L37.9453 37.5013L34.1433 40.036L35.2527 41.7001ZM39.0547 39.1654L61.5547 24.1654L60.4453 22.5013L37.9453 37.5013L39.0547 39.1654ZM1.5547 54.1654L24.0547 39.1654L22.9453 37.5013L0.4453 52.5013L1.5547 54.1654ZM0.4453 24.1654L22.9453 39.1654L24.0547 37.5013L1.5547 22.5013L0.4453 24.1654ZM22.9453 39.1654L26.7473 41.7001L27.8567 40.036L24.0547 37.5013L22.9453 39.1654Z" fill="#116F47"/>
</svg>
