<svg width="18" height="4" viewBox="0 0 18 4" fill="none" xmlns="http://www.w3.org/2000/svg">
<path d="M2 1C1.44772 1 1 1.44772 1 2C1 2.55228 1.44772 3 2 3V1ZM2.01 3C2.56228 3 3.01 2.55228 3.01 2C3.01 1.44772 2.56228 1 2.01 1V3ZM9 1C8.44772 1 8 1.44772 8 2C8 2.55228 8.44772 3 9 3V1ZM9.01 3C9.56229 3 10.01 2.55228 10.01 2C10.01 1.44772 9.56229 1 9.01 1V3ZM16 1C15.4477 1 15 1.44772 15 2C15 2.55228 15.4477 3 16 3V1ZM16.01 3C16.5623 3 17.01 2.55228 17.01 2C17.01 1.44772 16.5623 1 16.01 1V3ZM2 2V4C3.10457 4 4 3.10457 4 2H2ZM2 2H0C0 3.10457 0.89543 4 2 4V2ZM2 2V0C0.89543 0 0 0.89543 0 2H2ZM2 2H4C4 0.89543 3.10457 0 2 0V2ZM9 2V4C10.1046 4 11 3.10457 11 2H9ZM9 2H7C7 3.10457 7.89543 4 9 4V2ZM9 2V0C7.89543 0 7 0.89543 7 2H9ZM9 2H11C11 0.89543 10.1046 0 9 0V2ZM16 2V4C17.1046 4 18 3.10457 18 2H16ZM16 2H14C14 3.10457 14.8954 4 16 4V2ZM16 2V0C14.8954 0 14 0.89543 14 2H16ZM16 2H18C18 0.89543 17.1046 0 16 0V2ZM2 3H2.01V1H2V3ZM9 3H9.01V1H9V3ZM16 3H16.01V1H16V3Z" fill="#444947"/>
</svg>
