<svg width="62" height="70" viewBox="0 0 62 70" fill="none" xmlns="http://www.w3.org/2000/svg">
<path d="M59.7263 15.3182L60.6955 15.0719C60.5781 14.6098 60.1508 14.295 59.6748 14.3196L59.7263 15.3182ZM30.9998 1.66675L31.6734 0.927643C31.2917 0.579787 30.7079 0.579782 30.3262 0.927633L30.9998 1.66675ZM2.27376 15.3178L2.32534 14.3191C1.84927 14.2946 1.42203 14.6094 1.30459 15.0714L2.27376 15.3178ZM31 68.3334L30.8356 69.3198C30.9445 69.338 31.0556 69.338 31.1644 69.3198L31 68.3334ZM21.7135 35.0355C21.3265 34.6414 20.6933 34.6357 20.2993 35.0227C19.9053 35.4097 19.8996 36.0428 20.2865 36.4368L21.7135 35.0355ZM27.6667 42.5244L26.9532 43.2251C27.1412 43.4165 27.3983 43.5244 27.6667 43.5244C27.935 43.5244 28.1921 43.4165 28.3801 43.2251L27.6667 42.5244ZM41.7135 29.6486C42.1004 29.2546 42.0947 28.6214 41.7007 28.2344C41.3067 27.8475 40.6735 27.8532 40.2865 28.2472L41.7135 29.6486ZM59.6748 14.3196C59.0097 14.3539 58.3402 14.3713 57.6667 14.3713V16.3713C58.3747 16.3713 59.0786 16.353 59.7779 16.3169L59.6748 14.3196ZM57.6667 14.3713C47.8497 14.3713 38.7656 7.39122 31.6734 0.927643L30.3262 2.40585C37.3875 8.84128 46.994 16.3713 57.6667 16.3713V14.3713ZM30.3262 0.927633C23.234 7.39097 14.1501 14.3709 4.33333 14.3709V16.3709C15.0058 16.3709 24.6121 8.84104 31.6733 2.40586L30.3262 0.927633ZM4.33333 14.3709C3.65979 14.3709 2.99032 14.3535 2.32534 14.3191L2.22219 16.3165C2.92151 16.3526 3.62537 16.3709 4.33333 16.3709V14.3709ZM1.30459 15.0714C0.452854 18.422 0 21.9348 0 25.5538H2C2 22.1022 2.43184 18.7549 3.24294 15.5642L1.30459 15.0714ZM0 25.5538C0 44.7591 10.1344 65.8696 30.8356 69.3198L31.1644 67.347C11.8656 64.1306 2 44.305 2 25.5538H0ZM31.1644 69.3198C51.8656 65.8696 62 44.7591 62 25.5538H60C60 44.305 50.1344 64.1306 30.8356 67.347L31.1644 69.3198ZM62 25.5538C62 21.935 61.5472 18.4223 60.6955 15.0719L58.7572 15.5646C59.5682 18.7551 60 22.1023 60 25.5538H62ZM20.2865 36.4368L26.9532 43.2251L28.3801 41.8237L21.7135 35.0355L20.2865 36.4368ZM28.3801 43.2251L41.7135 29.6486L40.2865 28.2472L26.9532 41.8237L28.3801 43.2251Z" fill="#116F47"/>
</svg>
