<svg width="14" height="14" viewBox="0 0 14 14" fill="none" xmlns="http://www.w3.org/2000/svg">
<path d="M12.5118 1.48816L13.0421 0.957825V0.957825L12.5118 1.48816ZM3.33333 13.0237V13.7737C3.53225 13.7737 3.72301 13.6946 3.86366 13.554L3.33333 13.0237ZM1 13.0237H0.25C0.25 13.4379 0.585786 13.7737 1 13.7737L1 13.0237ZM1 10.6429L0.46967 10.1126C0.329018 10.2533 0.25 10.444 0.25 10.6429H1ZM10.6851 2.01849C11.0431 1.6605 11.6235 1.6605 11.9815 2.01849L13.0421 0.957825C12.0984 0.0140582 10.5682 0.0140582 9.62445 0.957825L10.6851 2.01849ZM11.9815 2.01849C12.3395 2.37647 12.3395 2.95687 11.9815 3.31485L13.0421 4.37551C13.9859 3.43174 13.9859 1.90159 13.0421 0.957825L11.9815 2.01849ZM11.9815 3.31485L2.803 12.4933L3.86366 13.554L13.0421 4.37551L11.9815 3.31485ZM3.33333 12.2737H1V13.7737H3.33333V12.2737ZM9.62445 0.957825L0.46967 10.1126L1.53033 11.1733L10.6851 2.01849L9.62445 0.957825ZM0.25 10.6429V13.0237H1.75V10.6429H0.25ZM8.62445 3.01849L10.9815 5.37551L12.0421 4.31485L9.68511 1.95783L8.62445 3.01849Z" fill="#444947"/>
</svg>
