<svg width="40" height="40" viewBox="0 0 40 40" fill="none" xmlns="http://www.w3.org/2000/svg">
<path d="M38.0001 20C38.0001 29.9411 29.9412 38 20.0001 38C10.059 38 2.00012 29.9411 2.00012 20C2.00012 10.0589 10.059 2 20.0001 2C29.9412 2 38.0001 10.0589 38.0001 20Z" fill="#A0D7C0"/>
<path d="M34.0001 20C34.0001 27.732 27.7321 34 20.0001 34C12.2681 34 6.00012 27.732 6.00012 20C6.00012 12.268 12.2681 6 20.0001 6C27.7321 6 34.0001 12.268 34.0001 20Z" fill="#189E66"/>
<path d="M21.0001 14C21.0001 13.4477 20.5524 13 20.0001 13C19.4478 13 19.0001 13.4477 19.0001 14H21.0001ZM19.0001 26C19.0001 26.5523 19.4478 27 20.0001 27C20.5524 27 21.0001 26.5523 21.0001 26H19.0001ZM26.0001 21C26.5524 21 27.0001 20.5523 27.0001 20C27.0001 19.4477 26.5524 19 26.0001 19V21ZM14.0001 19C13.4478 19 13.0001 19.4477 13.0001 20C13.0001 20.5523 13.4478 21 14.0001 21L14.0001 19ZM19.0001 14V26H21.0001V14H19.0001ZM26.0001 19L14.0001 19L14.0001 21L26.0001 21V19Z" fill="white"/>
</svg>
