<svg width="21" height="20" viewBox="0 0 21 20" fill="none" xmlns="http://www.w3.org/2000/svg">
<path d="M3.42896 14.9332C2.94816 15.2049 2.77871 15.815 3.05047 16.2958C3.32223 16.7766 3.9323 16.9461 4.41309 16.6743L3.42896 14.9332ZM17.1869 16.6743C17.6677 16.9461 18.2777 16.7766 18.5495 16.2958C18.8213 15.815 18.6518 15.2049 18.171 14.9332L17.1869 16.6743ZM12.8 8C12.8 9.10457 11.9046 10 10.8 10V12C13.0091 12 14.8 10.2091 14.8 8H12.8ZM10.8 10C9.69542 10 8.79999 9.10457 8.79999 8H6.79999C6.79999 10.2091 8.59085 12 10.8 12V10ZM8.79999 8C8.79999 6.89543 9.69542 6 10.8 6V4C8.59085 4 6.79999 5.79086 6.79999 8H8.79999ZM10.8 6C11.9046 6 12.8 6.89543 12.8 8H14.8C14.8 5.79086 13.0091 4 10.8 4V6ZM10.8 13C8.12289 13 5.60678 13.7022 3.42896 14.9332L4.41309 16.6743C6.29853 15.6086 8.47668 15 10.8 15V13ZM18.171 14.9332C15.9932 13.7022 13.4771 13 10.8 13V15C13.1233 15 15.3014 15.6086 17.1869 16.6743L18.171 14.9332ZM18.8 10C18.8 14.4183 15.2183 18 10.8 18V20C16.3228 20 20.8 15.5228 20.8 10H18.8ZM10.8 18C6.38171 18 2.79999 14.4183 2.79999 10H0.799988C0.799988 15.5228 5.27714 20 10.8 20V18ZM2.79999 10C2.79999 5.58172 6.38171 2 10.8 2V0C5.27714 0 0.799988 4.47715 0.799988 10H2.79999ZM10.8 2C15.2183 2 18.8 5.58172 18.8 10H20.8C20.8 4.47715 16.3228 0 10.8 0V2Z" />
</svg>
