<svg width="24" height="24" viewBox="0 0 24 24" fill="none" xmlns="http://www.w3.org/2000/svg">
<circle cx="12" cy="12" r="10" stroke="#189E66" stroke-width="2" stroke-linecap="round" stroke-linejoin="round"/>
<path d="M6.52899 16H8.4274L11.3096 9.73819V8.20513H6V9.73279H9.49032V9.82996L6.52899 16Z" fill="#189E66"/>
<path d="M12.5767 16H18V14.4561H14.9843V14.3374L16.1411 13.2308C17.4512 11.9892 17.9011 11.2119 17.9011 10.332V10.305C17.9011 8.92308 16.8382 8 15.2513 8C13.5852 8 12.4728 9.04723 12.4728 10.5965V10.6289H14.134V10.5911C14.134 9.94872 14.5641 9.49528 15.1771 9.49528C15.7802 9.49528 16.1411 9.87854 16.1411 10.4615V10.4831C16.1411 10.9582 15.8643 11.3468 14.8162 12.3995L12.5767 14.6775V16Z" fill="#189E66"/>
</svg>
