<svg width="21" height="20" viewBox="0 0 21 20" fill="none" xmlns="http://www.w3.org/2000/svg">
<path d="M18.4929 19.7071C18.8834 20.0976 19.5166 20.0976 19.9071 19.7071C20.2976 19.3166 20.2976 18.6834 19.9071 18.2929L18.4929 19.7071ZM13.9071 12.2929C13.5166 11.9024 12.8834 11.9024 12.4929 12.2929C12.1024 12.6834 12.1024 13.3166 12.4929 13.7071L13.9071 12.2929ZM14.2 8C14.2 11.3137 11.5137 14 8.20001 14V16C12.6183 16 16.2 12.4183 16.2 8H14.2ZM8.20001 14C4.8863 14 2.20001 11.3137 2.20001 8H0.200012C0.200012 12.4183 3.78173 16 8.20001 16V14ZM2.20001 8C2.20001 4.68629 4.8863 2 8.20001 2V0C3.78173 0 0.200012 3.58172 0.200012 8H2.20001ZM8.20001 2C11.5137 2 14.2 4.68629 14.2 8H16.2C16.2 3.58172 12.6183 0 8.20001 0V2ZM19.9071 18.2929L13.9071 12.2929L12.4929 13.7071L18.4929 19.7071L19.9071 18.2929Z" />
</svg>
