<svg width="18" height="18" viewBox="0 0 18 18"  xmlns="http://www.w3.org/2000/svg">
<path d="M1.5 16.5L0.605573 16.0528C0.43305 16.3978 0.474385 16.8113 0.711795 17.1154C0.949204 17.4195 1.34034 17.5599 1.71693 17.4762L1.5 16.5ZM9 1.5L9.89443 1.05279C9.72504 0.714002 9.37877 0.5 9 0.5C8.62123 0.5 8.27497 0.714002 8.10557 1.05279L9 1.5ZM16.5 16.5L16.2831 17.4762C16.6597 17.5599 17.0508 17.4195 17.2882 17.1154C17.5256 16.8113 17.567 16.3978 17.3944 16.0528L16.5 16.5ZM10 8.16667C10 7.61438 9.55229 7.16667 9 7.16667C8.44772 7.16667 8 7.61438 8 8.16667H10ZM2.39443 16.9472L9.89443 1.94721L8.10557 1.05279L0.605573 16.0528L2.39443 16.9472ZM8.10557 1.94721L15.6056 16.9472L17.3944 16.0528L9.89443 1.05279L8.10557 1.94721ZM16.7169 15.5238L9.21693 13.8571L8.78307 15.8095L16.2831 17.4762L16.7169 15.5238ZM8.78307 13.8571L1.28307 15.5238L1.71693 17.4762L9.21693 15.8095L8.78307 13.8571ZM10 14.8333V8.16667H8V14.8333H10Z" />
</svg>
