<svg width="20" height="20" viewBox="0 0 20 20" fill="none" xmlns="http://www.w3.org/2000/svg">
<path d="M5.75219 3.38285L6.27252 2.52888V2.52888L5.75219 3.38285ZM8.32463 2.31731L7.35285 2.08139L8.32463 2.31731ZM3.38285 5.75218L2.52888 6.27251H2.52888L3.38285 5.75218ZM2.31731 8.32463L2.08139 7.35285L2.31731 8.32463ZM2.31731 11.6754L2.55323 10.7036L2.31731 11.6754ZM3.38285 14.2478L2.52889 13.7275H2.52889L3.38285 14.2478ZM5.75219 16.6172L6.27252 17.4711L5.75219 16.6172ZM8.32463 17.6827L9.2964 17.4468L8.32463 17.6827ZM11.6754 17.6827L12.6471 17.9186L11.6754 17.6827ZM14.2478 16.6172L13.7275 17.4711L14.2478 16.6172ZM16.6172 14.2478L17.4711 13.7275L16.6172 14.2478ZM17.6827 11.6754L17.9186 12.6471L17.6827 11.6754ZM17.6827 8.32463L17.4468 9.2964L17.6827 8.32463ZM16.6172 5.75218L17.4711 6.27251L16.6172 5.75218ZM14.2478 3.38285L13.7275 2.52888V2.52888L14.2478 3.38285ZM11.6754 2.31731L10.7036 2.55323L11.6754 2.31731ZM5.23186 4.23681C6.80726 5.19673 8.86118 4.34596 9.2964 2.55322L7.35285 2.08139C7.23717 2.55789 6.69125 2.78402 6.27252 2.52888L5.23186 4.23681ZM4.23681 5.23185C3.84185 4.58365 4.58365 3.84185 5.23186 4.23681L6.27252 2.52888C3.83376 1.04292 1.04293 3.83376 2.52888 6.27251L4.23681 5.23185ZM2.55322 9.2964C4.34596 8.86118 5.19673 6.80726 4.23681 5.23185L2.52888 6.27251C2.78402 6.69125 2.5579 7.23717 2.08139 7.35285L2.55322 9.2964ZM2.55323 10.7036C1.81559 10.5245 1.81559 9.47547 2.55322 9.2964L2.08139 7.35285C-0.6938 8.02658 -0.693796 11.9734 2.08139 12.6471L2.55323 10.7036ZM4.23682 14.7681C5.19673 13.1927 4.34596 11.1388 2.55323 10.7036L2.08139 12.6471C2.5579 12.7628 2.78402 13.3088 2.52889 13.7275L4.23682 14.7681ZM5.23186 15.7632C4.58365 16.1581 3.84186 15.4164 4.23682 14.7681L2.52889 13.7275C1.04293 16.1662 3.83376 18.9571 6.27252 17.4711L5.23186 15.7632ZM9.2964 17.4468C8.86118 15.654 6.80726 14.8033 5.23186 15.7632L6.27252 17.4711C6.69125 17.216 7.23717 17.4421 7.35285 17.9186L9.2964 17.4468ZM10.7036 17.4468C10.5245 18.1844 9.47547 18.1844 9.2964 17.4468L7.35285 17.9186C8.02658 20.6938 11.9734 20.6938 12.6471 17.9186L10.7036 17.4468ZM14.7681 15.7632C13.1927 14.8033 11.1388 15.654 10.7036 17.4468L12.6471 17.9186C12.7628 17.4421 13.3088 17.216 13.7275 17.4711L14.7681 15.7632ZM15.7632 14.7681C16.1581 15.4164 15.4164 16.1581 14.7681 15.7632L13.7275 17.4711C16.1662 18.9571 18.9571 16.1662 17.4711 13.7275L15.7632 14.7681ZM17.4468 10.7036C15.654 11.1388 14.8033 13.1927 15.7632 14.7681L17.4711 13.7275C17.216 13.3088 17.4421 12.7628 17.9186 12.6471L17.4468 10.7036ZM17.4468 9.2964C18.1844 9.47547 18.1844 10.5245 17.4468 10.7036L17.9186 12.6471C20.6938 11.9734 20.6938 8.02658 17.9186 7.35285L17.4468 9.2964ZM15.7632 5.23185C14.8033 6.80726 15.654 8.86118 17.4468 9.2964L17.9186 7.35285C17.4421 7.23717 17.216 6.69125 17.4711 6.27251L15.7632 5.23185ZM14.7681 4.23682C15.4164 3.84185 16.1581 4.58364 15.7632 5.23185L17.4711 6.27251C18.9571 3.83376 16.1662 1.04293 13.7275 2.52888L14.7681 4.23682ZM10.7036 2.55323C11.1388 4.34596 13.1927 5.19673 14.7681 4.23682L13.7275 2.52888C13.3088 2.78402 12.7628 2.5579 12.6471 2.08139L10.7036 2.55323ZM12.6471 2.08139C11.9734 -0.693796 8.02658 -0.6938 7.35285 2.08139L9.2964 2.55322C9.47547 1.81559 10.5245 1.81559 10.7036 2.55323L12.6471 2.08139ZM12 10C12 11.1046 11.1046 12 10 12V14C12.2091 14 14 12.2091 14 10H12ZM10 12C8.89543 12 8 11.1046 8 10H6C6 12.2091 7.79086 14 10 14V12ZM8 10C8 8.89543 8.89543 8 10 8V6C7.79086 6 6 7.79086 6 10H8ZM10 8C11.1046 8 12 8.89543 12 10H14C14 7.79086 12.2091 6 10 6V8Z" fill="#444947"/>
</svg>
