<svg width="17" height="20" viewBox="0 0 17 20" fill="none" xmlns="http://www.w3.org/2000/svg">
<path d="M3 12C3 12.5523 3.44772 13 4 13C4.55228 13 5 12.5523 5 12H3ZM6 9C6 9.55229 6.44772 10 7 10C7.55228 10 8 9.55229 8 9H6ZM9 9C9 9.55229 9.44771 10 10 10C10.5523 10 11 9.55229 11 9H9ZM12 9C12 9.55229 12.4477 10 13 10C13.5523 10 14 9.55229 14 9H12ZM15 11.5C15 15.0899 12.0899 18 8.5 18V20C13.1944 20 17 16.1944 17 11.5H15ZM8.5 18C4.91015 18 2 15.0899 2 11.5H0C0 16.1944 3.80558 20 8.5 20V18ZM2 11.5V9.5H0V11.5H2ZM3 9.5V12H5V9.5H3ZM5 9.5V3.5H3V9.5H5ZM6 3.5V9H8V3.5H6ZM8 3.5V2.5H6V3.5H8ZM9 3.5V9H11V3.5H9ZM11 3.5V2.5H9V3.5H11ZM12 6.5V9H14V6.5H12ZM14 6.5V3.5H12V6.5H14ZM11.5 1C10.1193 1 9 2.11929 9 3.5H11C11 3.22386 11.2239 3 11.5 3V1ZM17 6.5C17 5.11929 15.8807 4 14.5 4V6C14.7761 6 15 6.22386 15 6.5H17ZM11.5 3C11.7761 3 12 3.22386 12 3.5H14C14 2.11929 12.8807 1 11.5 1V3ZM8.5 2C8.77614 2 9 2.22386 9 2.5H11C11 1.11929 9.88071 0 8.5 0V2ZM5.5 3C5.77614 3 6 3.22386 6 3.5H8C8 2.11929 6.88071 1 5.5 1V3ZM5 3.5C5 3.22386 5.22386 3 5.5 3V1C4.11929 1 3 2.11929 3 3.5H5ZM8 2.5C8 2.22386 8.22386 2 8.5 2V0C7.11929 0 6 1.11929 6 2.5H8ZM14.5 4C13.1193 4 12 5.11929 12 6.5H14C14 6.22386 14.2239 6 14.5 6V4ZM2.5 9C2.77614 9 3 9.22386 3 9.5H5C5 8.11929 3.88071 7 2.5 7V9ZM2 9.5C2 9.22386 2.22386 9 2.5 9V7C1.11929 7 0 8.11929 0 9.5H2ZM17 11.5V6.5H15V11.5H17Z" fill="#189E66"/>
</svg>
