<svg width="16" height="16" viewBox="0 0 16 16" fill="none" xmlns="http://www.w3.org/2000/svg">
<g clip-path="url(#clip0_505_4144)">
<path d="M14 12C14 13.8409 11.3137 15.3333 8 15.3333C4.68629 15.3333 2 13.8409 2 12C2 10.159 4.68629 8.66663 8 8.66663C11.3137 8.66663 14 10.159 14 12Z" stroke="#4E5451" stroke-width="1.5" stroke-linecap="round" stroke-linejoin="round"/>
<path d="M8 0.666626L8.33541 -0.00419444C8.10292 -0.12044 7.82681 -0.108017 7.6057 0.0286379C7.38459 0.165293 7.25 0.406693 7.25 0.666626L8 0.666626ZM14.6667 3.99996L14.9452 4.69632C15.2194 4.58663 15.4037 4.32622 15.416 4.03113C15.4283 3.73604 15.2662 3.46122 15.0021 3.32914L14.6667 3.99996ZM7.25 11.3333C7.25 11.7475 7.58579 12.0833 8 12.0833C8.41421 12.0833 8.75 11.7475 8.75 11.3333H7.25ZM7.66459 1.33745L14.3313 4.67078L15.0021 3.32914L8.33541 -0.00419444L7.66459 1.33745ZM14.3881 3.3036L7.72146 5.97027L8.27854 7.36298L14.9452 4.69632L14.3881 3.3036ZM7.25 0.666626L7.25 6.66663H8.75L8.75 0.666626L7.25 0.666626ZM7.25 6.66663L7.25 11.3333H8.75L8.75 6.66663H7.25Z" fill="#4E5451"/>
</g>
<defs>
<clipPath id="clip0_505_4144">
<rect width="16" height="16" fill="white"/>
</clipPath>
</defs>
</svg>
