<svg width="24" height="24" viewBox="0 0 24 24" fill="none" xmlns="http://www.w3.org/2000/svg">
<path d="M21 18C21 20.7614 16.9706 23 12 23C7.02944 23 3 20.7614 3 18C3 15.2386 7.02944 13 12 13C16.9706 13 21 15.2386 21 18Z" stroke="#189E66" stroke-width="2" stroke-linecap="round" stroke-linejoin="round"/>
<path d="M12 1L12.4472 0.105573C12.1372 -0.0494214 11.7691 -0.0328574 11.4743 0.149349C11.1795 0.331556 11 0.653422 11 1L12 1ZM22 6L22.3714 6.92848C22.737 6.78223 22.9828 6.43501 22.9991 6.04156C23.0155 5.64811 22.7994 5.28168 22.4472 5.10557L22 6ZM11 17C11 17.5523 11.4477 18 12 18C12.5523 18 13 17.5523 13 17H11ZM11.5528 1.89443L21.5528 6.89443L22.4472 5.10557L12.4472 0.105573L11.5528 1.89443ZM21.6286 5.07152L11.6286 9.07152L12.3714 10.9285L22.3714 6.92848L21.6286 5.07152ZM11 1L11 10H13L13 1L11 1ZM11 10L11 17H13L13 10H11Z" fill="#189E66"/>
</svg>
