<svg width="40" height="40" viewBox="0 0 40 40" fill="none" xmlns="http://www.w3.org/2000/svg">
<path d="M8.3335 33.333L17.0051 21.6663" stroke="#116F47" stroke-width="2" stroke-linecap="round" stroke-linejoin="round"/>
<path d="M22.7324 13.5835L25.3833 9.81857L25.8472 9.13058M25.8472 9.13058L26.311 8.44259C26.8263 7.74721 28.1663 6.42597 29.4031 6.70413C30.9492 7.05182 36.0235 8.94162 36.5487 11.3329C37.289 14.7033 34.3631 16.7773 32.906 16.7773C29.7104 16.7773 27.8061 14.444 26.349 10.5551L25.8472 9.13058Z" stroke="#116F47" stroke-width="2" stroke-linecap="round" stroke-linejoin="round"/>
<path d="M31.6665 33.333L14.6166 9.81868L14.1528 9.13069M14.1528 9.13069L13.689 8.4427C13.1736 7.74731 11.8337 6.42608 10.5968 6.70424C9.05075 7.05193 3.97644 8.94173 3.45122 11.333C2.71094 14.7034 5.63688 16.7775 7.09399 16.7775C10.2895 16.7775 12.1939 14.4441 13.651 10.5552L14.1528 9.13069Z" stroke="#116F47" stroke-width="2" stroke-linecap="round" stroke-linejoin="round"/>
</svg>
