<svg width="32" height="32" viewBox="0 0 32 32" fill="none" xmlns="http://www.w3.org/2000/svg">
<path d="M11.7071 15.2929C11.3166 14.9024 10.6834 14.9024 10.2929 15.2929C9.90237 15.6834 9.90237 16.3166 10.2929 16.7071L11.7071 15.2929ZM14.3333 19.3333L13.6262 20.0404C14.0168 20.431 14.6499 20.431 15.0404 20.0404L14.3333 19.3333ZM21.7071 13.3738C22.0976 12.9832 22.0976 12.3501 21.7071 11.9596C21.3166 11.569 20.6834 11.569 20.2929 11.9596L21.7071 13.3738ZM30 16C30 23.732 23.732 30 16 30V32C24.8366 32 32 24.8366 32 16H30ZM16 30C8.26801 30 2 23.732 2 16H0C0 24.8366 7.16344 32 16 32V30ZM2 16C2 8.26801 8.26801 2 16 2V0C7.16344 0 0 7.16344 0 16H2ZM16 2C23.732 2 30 8.26801 30 16H32C32 7.16344 24.8366 0 16 0V2ZM10.2929 16.7071L13.6262 20.0404L15.0404 18.6262L11.7071 15.2929L10.2929 16.7071ZM15.0404 20.0404L21.7071 13.3738L20.2929 11.9596L13.6262 18.6262L15.0404 20.0404Z" fill="#116F47"/>
</svg>
