<svg width="14" height="14" viewBox="0 0 14 14" fill="none" xmlns="http://www.w3.org/2000/svg">
<path d="M6.4377 1.40648C6.1636 1.71704 6.19315 2.19099 6.5037 2.46509C6.81425 2.73919 7.28821 2.70964 7.5623 2.39908L6.4377 1.40648ZM7.5623 4.93425C7.28821 4.6237 6.81425 4.59415 6.5037 4.86824C6.19315 5.14234 6.1636 5.6163 6.4377 5.92685L7.5623 4.93425ZM1 13H0.25C0.25 13.4142 0.585786 13.75 1 13.75L1 13ZM13 13V13.75C13.4142 13.75 13.75 13.4142 13.75 13H13ZM6.62446 8.21926C6.26591 8.42667 6.14339 8.88546 6.3508 9.24401C6.5582 9.60255 7.017 9.72507 7.37555 9.51767L6.62446 8.21926ZM6.91667 3.66667C6.91667 4.72521 6.05855 5.58333 5 5.58333V7.08333C6.88697 7.08333 8.41667 5.55364 8.41667 3.66667H6.91667ZM5 5.58333C3.94145 5.58333 3.08333 4.72521 3.08333 3.66667H1.58333C1.58333 5.55364 3.11303 7.08333 5 7.08333V5.58333ZM3.08333 3.66667C3.08333 2.60812 3.94145 1.75 5 1.75V0.25C3.11303 0.25 1.58333 1.77969 1.58333 3.66667H3.08333ZM5 1.75C6.05855 1.75 6.91667 2.60812 6.91667 3.66667H8.41667C8.41667 1.77969 6.88697 0.25 5 0.25V1.75ZM7.5623 2.39908C7.91461 1.99993 8.42765 1.75 9 1.75V0.25C7.97943 0.25 7.06266 0.698409 6.4377 1.40648L7.5623 2.39908ZM9 1.75C10.0585 1.75 10.9167 2.60812 10.9167 3.66667H12.4167C12.4167 1.77969 10.887 0.25 9 0.25V1.75ZM10.9167 3.66667C10.9167 4.72521 10.0585 5.58333 9 5.58333V7.08333C10.887 7.08333 12.4167 5.55364 12.4167 3.66667H10.9167ZM9 5.58333C8.42765 5.58333 7.91461 5.3334 7.5623 4.93425L6.4377 5.92685C7.06266 6.63492 7.97943 7.08333 9 7.08333V5.58333ZM1.75 12.3333C1.75 10.5384 3.20507 9.08333 5 9.08333V7.58333C2.37665 7.58333 0.25 9.70998 0.25 12.3333H1.75ZM5 9.08333C6.79493 9.08333 8.25 10.5384 8.25 12.3333H9.75C9.75 9.70998 7.62335 7.58333 5 7.58333V9.08333ZM0.25 12.3333V13H1.75V12.3333H0.25ZM1 13.75H9V12.25H1V13.75ZM9.75 13V12.3333H8.25V13H9.75ZM9 13.75H13V12.25H9V13.75ZM13.75 13V12.3333H12.25V13H13.75ZM13.75 12.3333C13.75 9.70998 11.6234 7.58333 9 7.58333V9.08333C10.7949 9.08333 12.25 10.5384 12.25 12.3333H13.75ZM9 7.58333C8.13606 7.58333 7.32388 7.81466 6.62446 8.21926L7.37555 9.51767C7.85281 9.24158 8.40679 9.08333 9 9.08333V7.58333Z" fill="#6F7874"/>
</svg>
