<svg width="24" height="24" viewBox="0 0 24 24" fill="none" xmlns="http://www.w3.org/2000/svg">
<path d="M5 20L10.203 13" stroke="white" stroke-width="2" stroke-linecap="round" stroke-linejoin="round"/>
<path d="M13.6394 8.15008L15.2299 5.89114L15.5082 5.47835M15.5082 5.47835L15.7865 5.06556C16.0957 4.64832 16.8997 3.85558 17.6418 4.02248C18.5695 4.23109 21.614 5.36497 21.9292 6.79974C22.3733 8.82197 20.6178 10.0664 19.7435 10.0664C17.8262 10.0664 16.6836 8.66641 15.8093 6.33307L15.5082 5.47835Z" stroke="white" stroke-width="2" stroke-linecap="round" stroke-linejoin="round"/>
<path d="M19 20L8.77006 5.8914L8.49177 5.47861M8.49177 5.47861L8.21348 5.06581C7.90426 4.64858 7.1003 3.85584 6.35819 4.02274C5.43055 4.23135 2.38596 5.36523 2.07083 6.8C1.62666 8.82222 3.38223 10.0667 4.25649 10.0667C6.1738 10.0667 7.31642 8.66667 8.19068 6.33333L8.49177 5.47861Z" stroke="white" stroke-width="2" stroke-linecap="round" stroke-linejoin="round"/>
</svg>
