<svg width="52" height="52" viewBox="0 0 52 52" fill="none" xmlns="http://www.w3.org/2000/svg">
<path d="M11.125 43L22.1813 28.125" stroke="white" stroke-width="2" stroke-linecap="round" stroke-linejoin="round"/>
<path d="M29.4839 17.8194L32.8638 13.0192L33.4552 12.142M33.4552 12.142L34.0465 11.2648C34.7036 10.3782 36.412 8.6936 37.989 9.04825C39.9603 9.49156 46.43 11.9011 47.0997 14.9499C48.0435 19.2472 44.3129 21.8916 42.4551 21.8916C38.3809 21.8916 35.9528 18.9166 34.095 13.9583L33.4552 12.142Z" stroke="white" stroke-width="2" stroke-linecap="round" stroke-linejoin="round"/>
<path d="M40.875 43L19.1364 13.0192L18.545 12.142M18.545 12.142L17.9536 11.2649C17.2966 10.3782 15.5882 8.69367 14.0112 9.04832C12.0399 9.49162 5.57018 11.9011 4.90052 14.95C3.95666 19.2472 7.68723 21.8917 9.54505 21.8917C13.6193 21.8917 16.0474 18.9167 17.9052 13.9583L18.545 12.142Z" stroke="white" stroke-width="2" stroke-linecap="round" stroke-linejoin="round"/>
</svg>
